<svg width="395" height="111" viewBox="0 0 395 111" fill="none" xmlns="http://www.w3.org/2000/svg">
<mask id="mask0_444_2120" style="mask-type:alpha" maskUnits="userSpaceOnUse" x="0" y="30" width="65" height="50">
<path d="M0 44.7727V80H8.96552V44.7727C8.96552 42.8788 9.86207 39.0909 13.4483 39.0909C17.0345 39.0909 17.931 42.8788 17.931 44.7727V68.6364C17.931 73.1818 19.7241 80 31.3793 80C43.0345 80 45.9483 73.1818 45.9483 69.0151V44.7727C45.9483 42.8788 46.8448 39.0909 50.431 39.0909C54.0172 39.0909 54.9138 42.8788 54.9138 44.7727V80H65V44.7727C65 39.8485 62.0862 30 50.431 30C38.7759 30 35.8621 39.8485 35.8621 44.7727V67.5C35.8621 68.6364 34.9655 70.9091 31.3793 70.9091C27.7931 70.9091 26.8966 68.6364 26.8966 67.5V44.7727C26.8966 39.8485 24.2069 30 13.4483 30C2.68965 30 0 39.8485 0 44.7727Z" fill="#D9D9D9"/>
</mask>
<g mask="url(#mask0_444_2120)">
<rect x="-15.8027" y="11.627" width="96.6055" height="87.0482" fill="url(#paint0_linear_444_2120)"/>
<path d="M-6.19043 55.2878C-1.08839 62.1884 21.0852 32.9004 32.0749 55.2895C41.7501 75.0006 65.805 46.5671 71.1905 55.2885" stroke="white" stroke-width="3"/>
</g>
<path d="M90.62 80.84C87.3533 80.84 84.5067 80 82.08 78.32C79.6533 76.64 77.7633 74.4 76.41 71.6C75.1033 68.7533 74.45 65.6267 74.45 62.22C74.45 58.72 75.1967 55.5467 76.69 52.7C78.23 49.8533 80.4233 47.6133 83.27 45.98C86.1167 44.3 89.5233 43.46 93.49 43.46C97.5033 43.46 100.887 44.3 103.64 45.98C106.393 47.66 108.493 49.9233 109.94 52.77C111.387 55.6167 112.11 58.7667 112.11 62.22V80H102.52V74.05H102.38C101.68 75.31 100.793 76.4533 99.72 77.48C98.6933 78.5067 97.4333 79.3233 95.94 79.93C94.4467 80.5367 92.6733 80.84 90.62 80.84ZM93.35 72.65C95.2167 72.65 96.8267 72.1833 98.18 71.25C99.5333 70.3167 100.56 69.0567 101.26 67.47C102.007 65.8367 102.38 64.04 102.38 62.08C102.38 60.12 102.007 58.37 101.26 56.83C100.56 55.2433 99.5333 53.9833 98.18 53.05C96.8267 52.1167 95.2167 51.65 93.35 51.65C91.4367 51.65 89.78 52.1167 88.38 53.05C87.0267 53.9833 85.9767 55.2433 85.23 56.83C84.53 58.37 84.18 60.12 84.18 62.08C84.18 64.04 84.53 65.8367 85.23 67.47C85.9767 69.0567 87.0267 70.3167 88.38 71.25C89.78 72.1833 91.4367 72.65 93.35 72.65ZM133.579 80C130.405 80 127.909 79.09 126.089 77.27C124.315 75.45 123.429 72.9767 123.429 69.85V35.34H133.019V69.57C133.019 70.1767 133.229 70.7133 133.649 71.18C134.115 71.6 134.652 71.81 135.259 71.81H143.029V80H133.579ZM117.339 52.49V44.3H143.029V52.49H117.339ZM162.768 80C159.595 80 157.098 79.09 155.278 77.27C153.505 75.45 152.618 72.9767 152.618 69.85V35.34H162.208V69.57C162.208 70.1767 162.418 70.7133 162.838 71.18C163.305 71.6 163.841 71.81 164.448 71.81H172.218V80H162.768ZM146.528 52.49V44.3H172.218V52.49H146.528ZM179.568 80V28.9H189.158V46.82C190.651 45.6067 192.261 44.7433 193.988 44.23C195.714 43.7167 197.418 43.46 199.098 43.46C202.551 43.46 205.398 44.1833 207.638 45.63C209.924 47.0767 211.628 49.0133 212.748 51.44C213.868 53.8667 214.428 56.55 214.428 59.49V80H204.838V59.49C204.838 58.0433 204.488 56.7367 203.788 55.57C203.088 54.3567 202.131 53.4 200.918 52.7C199.751 52 198.444 51.65 196.998 51.65C195.598 51.65 194.291 52 193.078 52.7C191.911 53.3533 190.954 54.2633 190.208 55.43C189.508 56.55 189.158 57.81 189.158 59.21V80H179.568ZM237.593 80.84C234.326 80.84 231.479 80 229.053 78.32C226.626 76.64 224.736 74.4 223.383 71.6C222.076 68.7533 221.423 65.6267 221.423 62.22C221.423 58.72 222.169 55.5467 223.663 52.7C225.203 49.8533 227.396 47.6133 230.243 45.98C233.089 44.3 236.496 43.46 240.463 43.46C244.476 43.46 247.859 44.3 250.613 45.98C253.366 47.66 255.466 49.9233 256.913 52.77C258.359 55.6167 259.083 58.7667 259.083 62.22V80H249.493V74.05H249.353C248.653 75.31 247.766 76.4533 246.693 77.48C245.666 78.5067 244.406 79.3233 242.913 79.93C241.419 80.5367 239.646 80.84 237.593 80.84ZM240.323 72.65C242.189 72.65 243.799 72.1833 245.153 71.25C246.506 70.3167 247.533 69.0567 248.233 67.47C248.979 65.8367 249.353 64.04 249.353 62.08C249.353 60.12 248.979 58.37 248.233 56.83C247.533 55.2433 246.506 53.9833 245.153 53.05C243.799 52.1167 242.189 51.65 240.323 51.65C238.409 51.65 236.753 52.1167 235.353 53.05C233.999 53.9833 232.949 55.2433 232.203 56.83C231.503 58.37 231.153 60.12 231.153 62.08C231.153 64.04 231.503 65.8367 232.203 67.47C232.949 69.0567 233.999 70.3167 235.353 71.25C236.753 72.1833 238.409 72.65 240.323 72.65ZM286.151 80C282.091 80 278.545 79.23 275.511 77.69C272.525 76.1033 270.191 73.9567 268.511 71.25C266.878 68.5433 266.061 65.51 266.061 62.15C266.061 58.37 266.831 55.08 268.371 52.28C269.911 49.48 272.011 47.31 274.671 45.77C277.331 44.23 280.341 43.46 283.701 43.46C287.715 43.46 290.958 44.3 293.431 45.98C295.951 47.66 297.795 49.9233 298.961 52.77C300.128 55.57 300.711 58.6967 300.711 62.15C300.711 62.6167 300.688 63.1767 300.641 63.83C300.595 64.4367 300.525 64.9033 300.431 65.23H276.281C276.655 66.6767 277.285 67.89 278.171 68.87C279.105 69.85 280.248 70.5967 281.601 71.11C283.001 71.5767 284.565 71.81 286.291 71.81H296.231V80H286.151ZM276.211 58.79H291.121C291.028 57.9033 290.865 57.0867 290.631 56.34C290.398 55.5467 290.071 54.8467 289.651 54.24C289.231 53.6333 288.741 53.12 288.181 52.7C287.621 52.28 286.968 51.9533 286.221 51.72C285.475 51.4867 284.658 51.37 283.771 51.37C282.605 51.37 281.555 51.58 280.621 52C279.735 52.42 278.988 52.98 278.381 53.68C277.775 54.38 277.285 55.1733 276.911 56.06C276.585 56.9467 276.351 57.8567 276.211 58.79ZM324.898 80.84C321.258 80.84 318.131 80.1167 315.518 78.67C312.905 77.2233 310.898 75.2867 309.498 72.86C308.145 70.4333 307.468 67.75 307.468 64.81V44.3H317.058V64.81C317.058 66.2567 317.408 67.5867 318.108 68.8C318.808 69.9667 319.741 70.9 320.908 71.6C322.121 72.3 323.451 72.65 324.898 72.65C326.345 72.65 327.651 72.3 328.818 71.6C330.031 70.9 330.988 69.9667 331.688 68.8C332.388 67.5867 332.738 66.2567 332.738 64.81V44.3H342.328V64.81C342.328 67.75 341.628 70.4333 340.228 72.86C338.875 75.2867 336.891 77.2233 334.278 78.67C331.711 80.1167 328.585 80.84 324.898 80.84ZM351.563 80V71.81H368.993C369.553 71.81 370.043 71.6933 370.463 71.46C370.93 71.2267 371.28 70.9 371.513 70.48C371.793 70.06 371.933 69.5933 371.933 69.08C371.933 68.52 371.793 68.03 371.513 67.61C371.28 67.19 370.93 66.8633 370.463 66.63C370.043 66.35 369.553 66.21 368.993 66.21H362.273C359.986 66.21 357.91 65.86 356.043 65.16C354.223 64.4133 352.753 63.2467 351.633 61.66C350.56 60.0267 350.023 57.9033 350.023 55.29C350.023 53.2833 350.513 51.4633 351.493 49.83C352.52 48.15 353.873 46.82 355.553 45.84C357.28 44.8133 359.17 44.3 361.223 44.3H377.953V52.49H362.133C361.433 52.49 360.803 52.7233 360.243 53.19C359.73 53.6567 359.473 54.2633 359.473 55.01C359.473 55.7567 359.73 56.3867 360.243 56.9C360.756 57.3667 361.386 57.6 362.133 57.6H368.853C371.42 57.6 373.636 57.9967 375.503 58.79C377.37 59.5367 378.816 60.7267 379.843 62.36C380.87 63.9933 381.383 66.14 381.383 68.8C381.383 70.8533 380.87 72.7433 379.843 74.47C378.816 76.15 377.44 77.5033 375.713 78.53C373.986 79.51 372.05 80 369.903 80H351.563Z" fill="url(#paint1_linear_444_2120)"/>
<path d="M68 52.4994C98 38.5002 194.236 55.9964 232 64.4977C252 69 355.5 70.999 394 51.4993" stroke="white" stroke-width="3"/>
<defs>
<linearGradient id="paint0_linear_444_2120" x1="32.5" y1="11.627" x2="32.5" y2="98.6751" gradientUnits="userSpaceOnUse">
<stop stop-color="#D68CAA"/>
<stop offset="1" stop-color="#8B8BD8"/>
</linearGradient>
<linearGradient id="paint1_linear_444_2120" x1="228.5" y1="0" x2="228.5" y2="111" gradientUnits="userSpaceOnUse">
<stop stop-color="#D68CAA"/>
<stop offset="1" stop-color="#8B8BD8"/>
</linearGradient>
</defs>
</svg>
