<?xml version="1.0" encoding="UTF-8"?>
<svg xmlns="http://www.w3.org/2000/svg" xmlns:xlink="http://www.w3.org/1999/xlink" width="20px" height="20px" viewBox="0 0 20 20" version="1.1">
<g id="surface1">
<path style=" stroke:none;fill-rule:evenodd;fill:rgb(24.313726%,78.039217%,50.196081%);fill-opacity:1;" d="M 2.410156 9.445312 L 2.417969 16.9375 L 5.96875 16.9375 L 5.96875 8.507812 Z M 2.410156 9.445312 "/>
<path style=" stroke:none;fill-rule:nonzero;fill:rgb(24.313726%,78.039217%,50.196081%);fill-opacity:1;" d="M 8.503906 16.9375 L 8.503906 3.046875 L 13.199219 3.046875 C 14.683594 3.027344 15.789062 3.234375 16.523438 3.570312 C 18.027344 4.269531 18.964844 5.863281 18.964844 7.738281 C 18.964844 10.308594 17.539062 12.582031 13.558594 12.582031 L 11.902344 12.582031 L 11.902344 16.9375 Z M 13.425781 9.460938 C 14.851562 9.460938 15.566406 8.972656 15.566406 7.789062 C 15.566406 6.664062 14.867188 6.15625 13.289062 6.15625 L 11.902344 6.15625 L 11.902344 9.460938 Z M 13.425781 9.460938 "/>
<path style=" stroke:none;fill-rule:evenodd;fill:rgb(24.313726%,78.039217%,50.196081%);fill-opacity:1;" d="M 5.96875 3.046875 L 2.417969 3.046875 L 2.417969 7.023438 L 5.984375 6.082031 Z M 5.96875 3.046875 "/>
</g>
</svg>
