<svg width="512" height="512" viewBox="0 0 512 512" fill="none" xmlns="http://www.w3.org/2000/svg">
  <path fill="#3EC780" fill-rule="evenodd" d="m61.748 241.785.18 191.789h90.851V217.766l-91.031 24.019Z" clip-rule="evenodd"/>
  <path fill="#3EC780" d="M217.725 433.574V77.957h120.164c37.963-.492 66.335 4.795 85.16 13.444 38.456 17.924 62.48 58.657 62.48 106.694 0 65.826-36.529 123.99-138.452 123.99h-42.355v111.489h-86.997Zm125.946-191.386c36.529 0 54.816-12.502 54.816-42.794 0-28.813-17.928-41.808-58.267-41.808h-35.498v84.602h38.949Z"/>
  <path fill="#3EC780" fill-rule="evenodd" d="M152.779 77.957H61.927v101.81l91.256-24.018-.404-77.791Z" clip-rule="evenodd"/>
</svg>
